<svg width="910" height="421" viewBox="0 0 910 421" fill="none" xmlns="http://www.w3.org/2000/svg">
<g clip-path="url(#clip0_4_43)">
<path d="M662.098 180.944V102.6C662.098 94.7883 668.453 88.4335 676.264 88.4335H727.516C735.327 88.4335 741.682 94.7883 741.682 102.6V180.944C741.682 188.755 735.327 195.11 727.516 195.11H676.264C668.453 195.11 662.098 188.755 662.098 180.944Z" fill="#512DA8"/>
<path d="M688.344 122.299H715.436V115.526H688.344V122.299Z" fill="#3F3D56"/>
<path d="M695.117 110.446H708.663V88.4336H695.117V110.446Z" fill="#3F3D56"/>
<path d="M695.117 195.11H708.663V173.097H695.117V195.11Z" fill="#3F3D56"/>
<path d="M625.692 184.11H547.348C539.537 184.11 533.182 177.755 533.182 169.944V118.692C533.182 110.881 539.537 104.526 547.348 104.526H625.692C633.504 104.526 639.858 110.881 639.858 118.692V169.944C639.858 177.755 633.504 184.11 625.692 184.11Z" fill="#512DA8"/>
<path d="M601.76 115.532H574.667V122.305H601.76V115.532Z" fill="#3F3D56"/>
<path d="M555.195 151.091V137.545H533.182V151.091H555.195Z" fill="#3F3D56"/>
<path d="M639.858 151.091V137.545H617.846V151.091H639.858Z" fill="#3F3D56"/>
<path d="M-9.81793 330.61L-22.8967 254.317C-28.7082 220.417 -3.61699 189.046 30.7323 187.267L217.182 177.61L261.68 104.27C267.58 94.5474 278.127 88.61 289.499 88.61H423.469C433.999 88.61 442.897 96.4192 444.264 106.861L447.666 165.544L781.666 166.544L823.682 305.012L784.682 303.11L786.682 345.11L735.682 347.11L718.681 299.038C715.48 289.986 701.452 279.78 686.871 271.24C654.184 252.097 612.189 258.241 587.453 286.93C581.617 293.697 577.537 300.749 576.397 307.361L568.682 352.11L194.682 346.11L145.666 277.544C131.184 261.785 62.8223 255.996 56.6657 277.544L19.6821 332.11L-9.81793 330.61Z" fill="#E6E6E6"/>
<path d="M396.679 133.236L407.682 185.11L267.682 188.11L297.251 124.625C299.933 118.866 305.821 115.29 312.168 115.566L379.255 118.483C387.748 118.852 394.915 124.921 396.679 133.236Z" fill="white"/>
<path d="M248.682 184.11L276.682 112.11L269.351 104.779L223.682 174.11L232.962 188.11L248.682 184.11Z" fill="white"/>
<path d="M649.682 418.11C686.133 418.11 715.682 388.561 715.682 352.11C715.682 315.659 686.133 286.11 649.682 286.11C613.231 286.11 583.682 315.659 583.682 352.11C583.682 388.561 613.231 418.11 649.682 418.11Z" fill="#3F3D56"/>
<path d="M604.182 352.11C604.182 327.021 624.593 306.61 649.682 306.61C674.771 306.61 695.182 327.021 695.182 352.11C695.182 377.199 674.771 397.61 649.682 397.61C624.593 397.61 604.182 377.199 604.182 352.11ZM605.182 352.11C605.182 376.647 625.144 396.61 649.682 396.61C674.22 396.61 694.182 376.647 694.182 352.11C694.182 327.573 674.22 307.61 649.682 307.61C625.144 307.61 605.182 327.573 605.182 352.11Z" fill="white"/>
<path d="M610.682 352.11C610.682 373.649 628.143 391.11 649.682 391.11C671.221 391.11 688.682 373.649 688.682 352.11C688.682 330.571 671.221 313.11 649.682 313.11C628.143 313.11 610.682 330.571 610.682 352.11ZM675.033 342.771L668.123 347.274L665.469 343.201L675.033 342.771ZM664.514 365.675L666.354 361.175L672.148 368.797L664.514 365.675ZM646.82 381.11L651.682 372.862V381.11H646.82ZM646.82 333.358L651.682 325.11V333.358H646.82ZM625.216 368.797L631.01 361.175L632.851 365.675L625.216 368.797ZM622.331 342.771L631.896 343.201L629.241 347.274L622.331 342.771Z" fill="#E6E6E6"/>
<path d="M95.6821 418.11C132.133 418.11 161.682 388.561 161.682 352.11C161.682 315.659 132.133 286.11 95.6821 286.11C59.2313 286.11 29.6821 315.659 29.6821 352.11C29.6821 388.561 59.2313 418.11 95.6821 418.11Z" fill="#3F3D56"/>
<path d="M50.1821 352.11C50.1821 327.021 70.5932 306.61 95.6821 306.61C120.771 306.61 141.182 327.021 141.182 352.11C141.182 377.199 120.771 397.61 95.6821 397.61C70.5932 397.61 50.1821 377.199 50.1821 352.11ZM51.1821 352.11C51.1821 376.647 71.1445 396.61 95.6821 396.61C120.22 396.61 140.182 376.647 140.182 352.11C140.182 327.573 120.22 307.61 95.6821 307.61C71.1445 307.61 51.1821 327.573 51.1821 352.11Z" fill="white"/>
<path d="M56.6821 352.11C56.6821 373.649 74.1429 391.11 95.6821 391.11C117.221 391.11 134.682 373.649 134.682 352.11C134.682 330.571 117.221 313.11 95.6821 313.11C74.1429 313.11 56.6821 330.571 56.6821 352.11ZM121.033 342.771L114.123 347.274L111.469 343.201L121.033 342.771ZM110.514 365.675L112.354 361.175L118.148 368.797L110.514 365.675ZM92.8199 381.11L97.6821 372.862V381.11H92.8199ZM92.8199 333.358L97.6821 325.11V333.358H92.8199ZM71.216 368.797L77.0103 361.175L78.8505 365.675L71.216 368.797ZM68.3307 342.771L77.8956 343.201L75.2408 347.274L68.3307 342.771Z" fill="#E6E6E6"/>
<path d="M371.182 211.61H409.182V203.61H371.182V211.61Z" fill="#3F3D56"/>
<path d="M906.788 368.654C906.434 367.57 903.749 368.048 903.492 367.078C903.235 366.112 905.811 365.302 907.786 362.58C908.143 362.089 910.388 358.996 909.527 357.695C907.895 355.228 896.538 361.371 893.813 357.924C893.214 357.168 892.968 355.869 891.186 353.452C890.477 352.491 890.022 352.026 889.479 352.04C888.708 352.06 888.432 353.024 887.22 354.772C885.402 357.392 884.746 357.063 883.549 359.211C882.66 360.805 882.555 361.823 881.914 361.883C881.007 361.968 880.632 359.984 879.524 359.907C878.393 359.828 877.261 361.789 876.7 363.321C875.647 366.196 876.299 368.394 876.443 370.584C876.6 372.964 876.232 376.448 873.646 380.92L849.254 419.782C854.492 411.859 869.362 390.256 875.353 382.332C877.082 380.044 878.941 377.747 881.802 377.315C884.556 376.899 887.907 378.261 892.584 378.182C893.13 378.173 894.65 378.128 895.02 377.322C895.326 376.656 894.567 376.077 894.843 375.45C895.213 374.61 896.88 374.971 899.151 374.413C900.752 374.02 901.84 373.37 902.776 372.811C903.058 372.642 907.259 370.097 906.788 368.654Z" fill="#F2F2F2"/>
<path d="M842.902 377.728C842.268 377.589 841.727 379.044 841.177 378.891C840.629 378.738 840.975 377.24 840.209 375.485C840.071 375.169 839.2 373.174 838.313 373.221C836.632 373.311 836.37 380.657 833.891 381C833.348 381.075 832.639 380.821 830.939 380.999C830.262 381.069 829.903 381.159 829.753 381.429C829.54 381.813 829.934 382.227 830.442 383.326C831.204 384.975 830.853 385.202 831.562 386.409C832.087 387.305 832.557 387.651 832.401 387.982C832.181 388.452 831.099 388.063 830.742 388.585C830.377 389.118 831.013 390.239 831.603 390.956C832.71 392.303 833.977 392.617 835.093 393.178C836.307 393.787 837.91 394.974 839.359 397.533L851.395 420.718C849.018 415.861 842.705 402.329 840.545 397.103C839.921 395.594 839.33 394.019 839.943 392.49C840.533 391.018 842.169 389.767 843.48 387.448C843.633 387.177 844.049 386.418 843.761 386.004C843.522 385.662 843.018 385.867 842.791 385.551C842.485 385.127 843.143 384.413 843.525 383.138C843.794 382.238 843.789 381.517 843.784 380.896C843.783 380.709 843.746 377.913 842.902 377.728Z" fill="#F2F2F2"/>
<path d="M854.909 383.385L855.288 379.892L855.52 379.672C856.593 378.658 857.265 377.583 857.517 376.476C857.557 376.301 857.588 376.123 857.62 375.941C857.745 375.223 857.901 374.331 858.592 373.403C858.978 372.887 860 371.719 861.055 372.127C861.339 372.233 861.531 372.418 861.665 372.613C861.698 372.58 861.732 372.546 861.769 372.509C862.224 372.066 862.543 371.904 862.85 371.748C863.086 371.628 863.329 371.504 863.741 371.175C863.922 371.03 864.067 370.9 864.189 370.791C864.559 370.461 865.032 370.074 865.68 370.227C866.367 370.415 866.603 371.07 866.759 371.504C867.038 372.278 867.124 372.81 867.181 373.163C867.201 373.292 867.225 373.437 867.243 373.485C867.393 373.864 869.281 373.962 869.991 374.003C871.588 374.089 872.969 374.164 873.302 375.257C873.54 376.039 873.043 376.892 871.782 377.86C871.39 378.161 870.997 378.369 870.655 378.524C870.865 378.723 871.033 378.994 871.043 379.362C871.066 380.234 870.172 380.904 868.384 381.355C867.94 381.468 867.343 381.618 866.561 381.58C866.193 381.562 865.87 381.506 865.595 381.453C865.554 381.61 865.479 381.773 865.344 381.927C864.946 382.383 864.303 382.498 863.431 382.242C862.468 381.973 861.708 381.609 861.037 381.288C860.45 381.009 859.945 380.77 859.521 380.705C858.732 380.594 857.996 381.081 857.116 381.73L854.909 383.385Z" fill="#F2F2F2"/>
<path d="M861.206 363.49L857.731 364.01L857.46 363.841C856.206 363.06 854.996 362.683 853.862 362.72C853.682 362.726 853.502 362.741 853.319 362.756C852.592 362.817 851.689 362.892 850.617 362.46C850.019 362.217 848.63 361.524 848.757 360.401C848.788 360.099 848.918 359.866 849.073 359.688C849.032 359.664 848.991 359.639 848.946 359.613C848.402 359.285 848.165 359.018 847.936 358.761C847.76 358.563 847.578 358.359 847.155 358.044C846.97 357.906 846.807 357.799 846.67 357.708C846.257 357.434 845.763 357.075 845.747 356.409C845.754 355.697 846.328 355.303 846.708 355.041C847.386 354.575 847.879 354.357 848.206 354.212C848.326 354.16 848.46 354.1 848.501 354.071C848.83 353.829 848.446 351.978 848.305 351.281C847.984 349.715 847.706 348.359 848.679 347.76C849.375 347.332 850.326 347.596 851.582 348.57C851.973 348.873 852.274 349.201 852.51 349.492C852.649 349.238 852.869 349.007 853.223 348.904C854.06 348.66 854.935 349.356 855.825 350.97C856.047 351.371 856.344 351.911 856.505 352.677C856.581 353.038 856.608 353.364 856.627 353.643C856.789 353.643 856.966 353.675 857.149 353.767C857.691 354.036 857.966 354.628 857.939 355.537C857.923 356.536 857.763 357.364 857.623 358.095C857.502 358.733 857.399 359.282 857.444 359.709C857.537 360.5 858.195 361.088 859.045 361.776L861.206 363.49Z" fill="#F2F2F2"/>
<path d="M861.674 353.056L862.052 349.563L862.284 349.343C863.358 348.329 864.029 347.254 864.281 346.147C864.321 345.972 864.353 345.794 864.384 345.612C864.51 344.894 864.666 344.002 865.356 343.074C865.743 342.558 866.765 341.39 867.819 341.798C868.104 341.904 868.296 342.089 868.429 342.284C868.463 342.251 868.497 342.217 868.534 342.18C868.989 341.737 869.308 341.575 869.615 341.419C869.85 341.299 870.094 341.175 870.506 340.846C870.687 340.701 870.831 340.571 870.953 340.462C871.323 340.132 871.796 339.745 872.445 339.898C873.132 340.086 873.367 340.741 873.523 341.175C873.803 341.949 873.889 342.481 873.945 342.834C873.966 342.963 873.99 343.108 874.008 343.156C874.158 343.535 876.046 343.633 876.756 343.674C878.353 343.76 879.734 343.835 880.066 344.928C880.305 345.71 879.808 346.563 878.547 347.531C878.154 347.832 877.762 348.04 877.419 348.195C877.63 348.394 877.797 348.665 877.808 349.033C877.831 349.905 876.936 350.575 875.149 351.026C874.705 351.139 874.107 351.289 873.326 351.251C872.957 351.233 872.635 351.177 872.36 351.124C872.319 351.281 872.244 351.444 872.108 351.598C871.71 352.054 871.068 352.169 870.196 351.913C869.233 351.644 868.472 351.28 867.801 350.959C867.215 350.68 866.709 350.441 866.285 350.375C865.496 350.265 864.761 350.752 863.88 351.401L861.674 353.056Z" fill="#F2F2F2"/>
<path d="M850.407 419.98L849.793 419.374L848.939 419.283C848.943 419.203 848.937 419.015 848.931 418.722C848.898 417.115 848.796 412.225 849.477 404.711C849.953 399.466 850.747 394.142 851.839 388.884C852.932 383.617 854.067 379.699 854.979 376.549C855.666 374.174 856.361 371.921 857.038 369.727C858.847 363.863 860.555 358.325 861.612 352.007C861.849 350.597 862.341 347.661 861.334 344.196C860.751 342.187 859.751 340.295 858.362 338.576L859.706 337.491C861.239 339.39 862.344 341.485 862.993 343.716C864.108 347.558 863.573 350.757 863.316 352.294C862.239 358.723 860.514 364.315 858.688 370.234C858.014 372.421 857.322 374.664 856.637 377.03C855.734 380.15 854.609 384.034 853.53 389.233C852.451 394.428 851.666 399.687 851.196 404.866C850.524 412.285 850.625 417.103 850.658 418.686C850.675 419.531 850.679 419.708 850.407 419.98Z" fill="#F2F2F2"/>
<path d="M854.675 340.564C854.606 340.549 854.536 340.531 854.467 340.511C853.049 340.113 851.912 338.958 851.086 337.078C850.699 336.193 850.608 335.263 850.426 333.407C850.397 333.12 850.271 331.673 850.426 329.754C850.527 328.5 850.662 327.996 851.003 327.6C851.382 327.16 851.893 326.908 852.432 326.781C852.447 326.615 852.501 326.453 852.609 326.299C853.053 325.66 853.796 325.922 854.199 326.059C854.402 326.132 854.655 326.225 854.94 326.273C855.387 326.35 855.654 326.271 856.059 326.154C856.446 326.042 856.927 325.902 857.592 325.914C858.904 325.932 859.875 326.522 860.196 326.716C861.883 327.73 862.465 329.347 863.139 331.219C863.273 331.594 863.717 332.951 863.821 334.698C863.896 335.958 863.73 336.474 863.541 336.843C863.154 337.601 862.562 337.953 861.092 338.693C859.556 339.468 858.786 339.856 858.154 340.055C856.684 340.516 855.761 340.806 854.675 340.564Z" fill="#F2F2F2"/>
<path d="M-95 418.48C-95 419.14 -94.0747 419.67 -92.9225 419.67H898.848C900 419.67 900.926 419.14 900.926 418.48C900.926 417.82 900 417.29 898.848 417.29H-92.9225C-94.0747 417.29 -95 417.82 -95 418.48Z" fill="#CCCCCC"/>
<path d="M408.94 410.967L422.825 410.965L429.43 357.41L408.938 357.411L408.94 410.967Z" fill="#FFB6B6"/>
<path d="M456.511 410.652C456.943 411.38 457.171 413.73 457.171 414.576C457.171 417.179 455.062 419.289 452.459 419.289L409.46 419.289C407.684 419.289 406.245 417.85 406.245 416.074V414.284C406.245 414.284 404.118 408.903 408.497 402.272C408.497 402.272 413.94 407.464 422.073 399.331L424.472 394.986L441.833 407.683L451.456 408.868C453.561 409.127 455.428 408.828 456.511 410.652Z" fill="#2F2E41"/>
<path d="M346.558 410.967L360.442 410.965L367.047 357.41L346.555 357.411L346.558 410.967Z" fill="#FFB6B6"/>
<path d="M394.128 410.652C394.561 411.38 394.789 413.73 394.789 414.576C394.789 417.179 392.679 419.289 390.076 419.289L347.077 419.289C345.302 419.289 343.862 417.85 343.862 416.074V414.284C343.862 414.284 341.735 408.903 346.114 402.272C346.114 402.272 351.557 407.464 359.691 399.331L362.089 394.986L379.45 407.683L389.073 408.868C391.179 409.127 393.045 408.828 394.128 410.652Z" fill="#2F2E41"/>
<path d="M406.741 45.2755L409.377 69.8771L378.625 67.2412L383.897 44.3969L406.741 45.2755Z" fill="#FFB6B6"/>
<path opacity="0.1" d="M406.741 45.2755L409.377 69.8771L378.625 67.2412L383.897 44.3969L406.741 45.2755Z" fill="black"/>
<path d="M395.759 48.3507C406.919 48.3507 415.967 39.3031 415.967 28.1423C415.967 16.9815 406.919 7.93386 395.759 7.93386C384.598 7.93386 375.55 16.9815 375.55 28.1423C375.55 39.3031 384.598 48.3507 395.759 48.3507Z" fill="#FFB6B6"/>
<path d="M408.938 59.7729L442.765 79.542L431.682 133.138L439.251 205.186L433.979 381.79L401.47 378.276L397.077 228.03L371.596 383.547H340.028L345.237 215.729L361.053 144.561L351.388 67.2412L380.822 58.0157L408.938 59.7729Z" fill="#2F2E41"/>
<path d="M410.256 33.8534C410.256 33.8534 412.013 27.703 415.967 28.1423C419.921 28.5816 420.799 25.0671 419.921 23.3099C419.042 21.5526 417.285 12.7663 417.285 12.7663C417.285 12.7663 418.164 6.61591 412.892 5.73729C407.62 4.85866 405.863 3.98003 404.984 2.22278C404.106 0.465521 390.926 -1.29173 386.533 1.34415C382.14 3.98003 378.625 9.03733 375.55 10.4625C372.475 11.8877 369.839 14.5236 371.596 18.9167C373.354 23.3098 375.902 31.9019 375.902 31.9019C375.902 31.9019 380.383 30.3389 381.261 32.9748C382.14 35.6106 378.625 32.0961 383.018 25.0671C387.412 18.0381 387.412 11.0091 394.441 13.645C401.47 16.2808 409.377 15.4022 408.499 20.674C407.62 25.9457 410.256 33.8534 410.256 33.8534Z" fill="#2F2E41"/>
<path d="M425.321 189.424C421.092 193.902 419.975 199.714 422.825 202.405C425.675 205.096 431.413 203.647 435.643 199.167C437.357 197.401 438.624 195.249 439.336 192.893L457.015 173.694L447.829 165.589L431.375 185.377C429.063 186.223 426.987 187.611 425.321 189.424Z" fill="#FFB6B6"/>
<path d="M442.409 79.1027L472.182 129.826L476.592 152.982L447.923 189.371L435.793 173.933L450.128 152.982L426.972 112.183L442.409 79.1027Z" fill="#2F2E41"/>
<path d="M358.701 184.701V124.896C358.701 115.781 366.117 108.365 375.232 108.365H466.651C475.767 108.365 483.182 115.781 483.182 124.896V184.701C483.182 193.817 475.767 201.232 466.651 201.232H375.232C366.117 201.232 358.701 193.817 358.701 184.701Z" fill="#512DA8"/>
<path d="M403.159 146.112H434.773V138.209H403.159V146.112Z" fill="#3F3D56"/>
<path d="M432.182 200.702V184.895H406.496V200.702H432.182Z" fill="#3F3D56"/>
<path d="M433.388 124.702V108.895H407.701V124.702H433.388Z" fill="#3F3D56"/>
<path d="M367.953 178.002C372.182 182.48 373.3 188.292 370.45 190.983C367.599 193.674 361.861 192.225 357.631 187.745C355.917 185.978 354.651 183.827 353.938 181.471L336.259 162.271L345.446 154.167L361.899 173.955C364.211 174.801 366.287 176.189 367.953 178.002Z" fill="#FFB6B6"/>
<path d="M350.865 67.6806L321.093 118.404L316.682 141.56L345.352 177.948L357.481 162.511L343.146 141.56L366.303 100.761L350.865 67.6806Z" fill="#2F2E41"/>
<path d="M-19.3343 309.544C-4.4226 309.544 7.66571 299.023 7.66571 286.044C7.66571 273.065 -4.4226 262.544 -19.3343 262.544C-34.246 262.544 -46.3343 273.065 -46.3343 286.044C-46.3343 299.023 -34.246 309.544 -19.3343 309.544Z" fill="#E6E6E6"/>
</g>
<defs>
<clipPath id="clip0_4_43">
<rect width="1004.72" height="420.718" fill="white" transform="translate(-95)"/>
</clipPath>
</defs>
</svg>
